<svg xmlns="http://www.w3.org/2000/svg" viewBox="0 0 97.89 97.89"><defs><style>.cls-1{fill:#0d6efd;}.cls-2{fill:#333;}.cls-3,.cls-4{fill:none;stroke-width:4px;}.cls-3{stroke:#2d2d2d;stroke-miterlimit:10;}.cls-4{stroke:#0d6efd;stroke-linecap:round;stroke-linejoin:round;}</style></defs><title>Ресурс 6</title><g id="Слой_2" data-name="Слой 2"><g id="Слой_1-2" data-name="Слой 1"><path class="cls-1" d="M22.34,70.89a.78.78,0,0,0-.05.14Z"/><path class="cls-1" d="M21.68,73a20.48,20.48,0,0,1,.61-2Z"/><path class="cls-1" d="M22.29,71a20.48,20.48,0,0,0-.61,2v.06c0,.19.84.63,2.19,1.42,23.5,14.25,48.22-1.38,46.84-18.07a20.7,20.7,0,0,0-8.39-14,1,1,0,0,0-.19-.12l.09-.13,5.08-18a11.39,11.39,0,0,0,.78-2.82l0-.07,0,0a9.64,9.64,0,0,0-1.78-.85c-21-9.36-41.21.44-42.64,14.19-.52,4.89,2,10.76,5.33,14.33L22.46,70.5l-.12.39Zm73.6-60V86.89a9,9,0,0,1-9,9H11a9,9,0,0,1-9-9V11a9,9,0,0,1,9-9H86.89A9,9,0,0,1,95.89,11Z"/><path class="cls-2" d="M68.1,21.27l0,.07a.24.24,0,0,0,0-.09Z"/><path class="cls-1" d="M66.27,20.4a9.64,9.64,0,0,1,1.78.85C67.45,21,66.86,20.67,66.27,20.4Z"/><path class="cls-3" d="M44.34,39.78c1.31-.38,10-2.74,17.78,2.51a1,1,0,0,1,.19.12,20.7,20.7,0,0,1,8.39,14c1.38,16.69-23.34,32.32-46.84,18.07-.72-.45-1.46-.92-2.19-1.42"/><path class="cls-3" d="M68.1,21.27l0,0c-.6-.3-1.19-.58-1.78-.85-21-9.36-41.21.44-42.64,14.19-.52,4.89,2,10.76,5.33,14.33,6.85,7.34,16.59,6.58,17.87,6.47"/><polyline class="cls-3" points="21.68 73.03 22.29 71.03 22.34 70.89 22.46 70.5 28.96 48.92"/><polyline class="cls-3" points="62.21 42.16 67.29 24.16 68.07 21.34 68.1 21.27"/><path class="cls-3" d="M66.27,20.4a9.64,9.64,0,0,1,1.78.85.24.24,0,0,1,0,.09,11.39,11.39,0,0,1-.78,2.82"/><path class="cls-3" d="M24.84,75.07c-.35-.2-.67-.4-1-.56-1.35-.79-2.19-1.23-2.19-1.42V73a20.48,20.48,0,0,1,.61-2,.78.78,0,0,1,.05-.14c0-.14.08-.26.12-.39"/><path class="cls-4" d="M86.89,95.89H11a9,9,0,0,1-9-9V11a9,9,0,0,1,9-9H86.89a9,9,0,0,1,9,9V86.89A9,9,0,0,1,86.89,95.89Z"/></g></g></svg>