<svg xmlns="http://www.w3.org/2000/svg" viewBox="0 0 97.89 97.89"><defs><style>.cls-1{fill:#0d6efd;}.cls-2{fill:#fcfcfc;}.cls-3{fill:#333;}.cls-4,.cls-5{fill:none;stroke-width:4px;}.cls-4{stroke:#2d2d2d;stroke-miterlimit:10;}.cls-5{stroke:#0d6efd;stroke-linecap:round;stroke-linejoin:round;}</style></defs><title>Ресурс 7</title><g id="Слой_2" data-name="Слой 2"><g id="Слой_1-2" data-name="Слой 1"><path class="cls-1" d="M95.89,11V86.89a9,9,0,0,1-9,9H11a9,9,0,0,1-9-9V11a9,9,0,0,1,9-9H86.89A9,9,0,0,1,95.89,11Zm-72,63.51c23.5,14.25,48.22-1.38,46.84-18.07a20.7,20.7,0,0,0-8.39-14,1,1,0,0,0-.19-.12l.09-.13,5.08-18a11.39,11.39,0,0,0,.78-2.82l0-.07,0,0a9.64,9.64,0,0,0-1.78-.85c-21-9.36-41.21.44-42.64,14.19-.52,4.89,2,10.76,5.33,14.33L22.46,70.5l-.17.53a20.48,20.48,0,0,0-.61,2v.06C21.67,73.28,22.51,73.72,23.86,74.51Z"/><path class="cls-2" d="M62.12,42.29a1,1,0,0,1,.19.12,20.7,20.7,0,0,1,8.39,14c1.38,16.69-23.34,32.32-46.84,18.07-.72-.45-1.46-.92-2.19-1.42V73l.61-2,.17-.53L29,48.92c-3.32-3.57-5.85-9.44-5.33-14.33C25.06,20.84,45.28,11,66.27,20.4c.59.27,1.18.55,1.78.85a.24.24,0,0,1,0,.09l-.78,2.82-5.08,18Z"/><path class="cls-3" d="M68.1,21.27l0,.07a.24.24,0,0,0,0-.09Z"/><path class="cls-1" d="M66.27,20.4a9.64,9.64,0,0,1,1.78.85C67.45,21,66.86,20.67,66.27,20.4Z"/><path class="cls-1" d="M22.29,71l-.61,2A20.48,20.48,0,0,1,22.29,71Z"/><path class="cls-4" d="M44.34,39.78c1.31-.38,10-2.74,17.78,2.51a1,1,0,0,1,.19.12,20.7,20.7,0,0,1,8.39,14c1.38,16.69-23.34,32.32-46.84,18.07-.72-.45-1.46-.92-2.19-1.42"/><path class="cls-4" d="M68.1,21.27l0,0c-.6-.3-1.19-.58-1.78-.85-21-9.36-41.21.44-42.64,14.19-.52,4.89,2,10.76,5.33,14.33,6.85,7.34,16.59,6.58,17.87,6.47"/><line class="cls-4" x1="22.46" y1="70.5" x2="28.96" y2="48.92"/><line class="cls-4" x1="21.68" y1="73.03" x2="22.29" y2="71.03"/><polyline class="cls-4" points="62.21 42.16 67.29 24.16 68.07 21.34 68.1 21.27"/><path class="cls-4" d="M66.27,20.4a9.64,9.64,0,0,1,1.78.85.24.24,0,0,1,0,.09,11.39,11.39,0,0,1-.78,2.82"/><path class="cls-4" d="M24.84,75.07c-.35-.2-.67-.4-1-.56-1.35-.79-2.19-1.23-2.19-1.42V73a20.48,20.48,0,0,1,.61-2l.17-.53"/><path class="cls-5" d="M86.89,95.89H11a9,9,0,0,1-9-9V11a9,9,0,0,1,9-9H86.89a9,9,0,0,1,9,9V86.89A9,9,0,0,1,86.89,95.89Z"/></g></g></svg>