<svg xmlns="http://www.w3.org/2000/svg" viewBox="0 0 1000 200"><defs><style>.cls-1{fill:#0d6efd;}.cls-2{fill:#2d2d2d;}.cls-3{fill:#333;}.cls-4,.cls-5{fill:none;stroke-width:8px;}.cls-4{stroke:#2d2d2d;stroke-miterlimit:10;}.cls-5{stroke:#0d6efd;stroke-linecap:round;stroke-linejoin:round;}.cls-6{fill:#fff;}</style></defs><title>Ресурс 9</title><g id="Слой_2" data-name="Слой 2"><g id="Слой_1-2" data-name="Слой 1"><rect class="cls-1" width="1000" height="200"/><rect class="cls-1" x="273.82" y="51.7" width="436.82" height="110.06" rx="39.02"/><path class="cls-1" d="M386.48,70.48v75.89a9,9,0,0,1-9,9H301.6a9,9,0,0,1-9-9V70.48a9,9,0,0,1,9-9h75.88A9,9,0,0,1,386.48,70.48Zm-72,63.5c23.5,14.26,48.21-1.37,46.84-18.06-.4-4.83-3.76-10.84-8.39-14a1,1,0,0,0-.19-.12l.08-.13,5.08-18a11.55,11.55,0,0,0,.79-2.82l0-.07,0,0a9.46,9.46,0,0,0-1.79-.85c-21-9.36-41.2.44-42.63,14.19-.52,4.89,2,10.76,5.32,14.33L313.05,130l-.16.53a18,18,0,0,0-.61,2v.05C312.27,132.76,313.11,133.2,314.46,134Z"/><path class="cls-2" d="M352.72,101.77a1,1,0,0,1,.19.12c4.63,3.19,8,9.2,8.39,14,1.37,16.69-23.34,32.32-46.84,18.06-.73-.44-1.47-.91-2.19-1.42v-.05l.61-2,.16-.53,6.5-21.58c-3.32-3.57-5.84-9.44-5.32-14.33,1.43-13.75,21.65-23.55,42.63-14.19.6.27,1.19.55,1.79.85a.2.2,0,0,1,0,.09l-.79,2.82-5.08,18Z"/><path class="cls-3" d="M358.69,80.75l0,.07a.2.2,0,0,0,0-.09Z"/><path class="cls-1" d="M356.86,79.88a9.46,9.46,0,0,1,1.79.85C358.05,80.43,357.46,80.15,356.86,79.88Z"/><path class="cls-1" d="M312.89,130.51l-.61,2A18,18,0,0,1,312.89,130.51Z"/><path class="cls-4" d="M334.94,99.26c1.3-.38,10-2.74,17.78,2.51a1,1,0,0,1,.19.12c4.63,3.19,8,9.2,8.39,14,1.37,16.69-23.34,32.32-46.84,18.06-.73-.44-1.47-.91-2.19-1.42"/><path class="cls-4" d="M358.69,80.75l0,0c-.6-.3-1.19-.58-1.79-.85-21-9.36-41.2.44-42.63,14.19-.52,4.89,2,10.76,5.32,14.33,6.86,7.33,16.6,6.58,17.88,6.47"/><line class="cls-4" x1="313.05" y1="129.98" x2="319.55" y2="108.4"/><line class="cls-4" x1="312.28" y1="132.51" x2="312.89" y2="130.51"/><polyline class="cls-4" points="352.8 101.64 357.88 83.64 358.67 80.82 358.69 80.75"/><path class="cls-4" d="M356.86,79.88a9.46,9.46,0,0,1,1.79.85.2.2,0,0,1,0,.09,11.55,11.55,0,0,1-.79,2.82"/><path class="cls-4" d="M315.43,134.55l-1-.57c-1.35-.78-2.19-1.22-2.19-1.42v-.05a18,18,0,0,1,.61-2l.16-.53"/><path class="cls-5" d="M377.48,155.37H301.6a9,9,0,0,1-9-9V70.48a9,9,0,0,1,9-9h75.88a9,9,0,0,1,9,9v75.89A9,9,0,0,1,377.48,155.37Z"/><path class="cls-6" d="M322.25,118.12A26.71,26.71,0,0,0,334,121.39c4.14,0,5.9-1.39,5.9-3.63s-1.4-3.39-6.46-5.1c-9.16-3-12.61-8-12.55-13.16,0-8.28,7-14.49,17.91-14.49a29.08,29.08,0,0,1,12.4,2.57L348.81,97a22.44,22.44,0,0,0-9.55-2.49c-3.34,0-5.25,1.34-5.25,3.55s1.75,3.23,7.14,5.09c8.36,2.84,11.86,7.14,11.92,13.56,0,8.22-6.42,14.28-19,14.28a31.47,31.47,0,0,1-14.26-3.1Z"/><path class="cls-6" d="M375.47,73.77c0,3.82-2.8,6.84-7.36,6.84-4.34,0-7.15-3-7.13-6.84s2.86-6.85,7.25-6.85S375.41,69.85,375.47,73.77Zm-14.1,56.28V86h13.71v44.05Z"/><path class="cls-6" d="M401.3,73.44V86h9.86V96.1H401.3v16c0,5.32,1.32,7.76,5.4,7.76a17.55,17.55,0,0,0,4.07-.41l.11,10.41A28.79,28.79,0,0,1,402,131c-4.43,0-8.12-1.54-10.32-3.83-2.54-2.61-3.79-6.8-3.79-13v-18h-5.85V86h5.85V76.54Z"/><path class="cls-6" d="M429.16,112.43c.41,5.68,6,8.38,12.41,8.38A36.81,36.81,0,0,0,453.69,119l1.85,9.26a42.68,42.68,0,0,1-16,2.79c-14.92,0-23.49-8.69-23.49-22.42,0-11.19,7-23.57,22.2-23.57C452.57,85,458,96.11,458,107a26.38,26.38,0,0,1-.49,5.42Zm16.07-9.38c0-3.3-1.44-8.93-7.68-8.93-5.78,0-8.12,5.28-8.5,8.93Z"/><path class="cls-6" d="M488.67,130.05v-14H462.74V107.2l22.1-35.65h16.75v34.29h7v10.23h-7v14Zm0-24.21V92.9c0-3.51.19-7.13.39-10.9h-.33c-1.87,3.81-3.44,7.19-5.42,10.85l-7.8,12.82-.05.18Z"/><path class="cls-6" d="M525.53,86l3.54,18.06c.89,4.53,1.77,9.42,2.5,14.45h.21c.83-5,2.16-10,3.22-14.35L539.63,86h10.85l4.4,17.55c1.2,5,2.37,10,3.22,15h.19c.62-5,1.51-10,2.55-15L564.58,86H578L564.5,130.05H551.67l-4.14-15.44c-1.14-4.34-1.95-8.28-2.86-13.76h-.18a111.46,111.46,0,0,1-2.82,13.68l-4.41,15.52H524.41L511.58,86Z"/><path class="cls-6" d="M593.59,112.43c.4,5.68,6,8.38,12.41,8.38A36.81,36.81,0,0,0,618.12,119l1.85,9.26A42.68,42.68,0,0,1,604,131c-14.92,0-23.49-8.69-23.49-22.42,0-11.19,7-23.57,22.2-23.57,14.28,0,19.67,11.1,19.67,22a26.38,26.38,0,0,1-.49,5.42Zm16.07-9.38c0-3.3-1.45-8.93-7.68-8.93-5.78,0-8.13,5.28-8.51,8.93Z"/><path class="cls-6" d="M630.19,130.05c.19-2.91.36-8.16.36-13.16V66.15h13.69v25.1h.18C647,87.47,651.61,85,657.72,85c10.58,0,18.28,8.75,18.17,22.24,0,15.87-10,23.79-20.14,23.79-5.15,0-10.11-1.91-13.17-7.12h-.19l-.58,6.13Zm14-18.69a11.75,11.75,0,0,0,.24,2.4,8.38,8.38,0,0,0,8.07,6.52c5.81,0,9.44-4.53,9.44-12.45,0-6.85-3.06-12.26-9.42-12.26a8.4,8.4,0,0,0-8.05,6.76,12,12,0,0,0-.28,2.53Z"/></g></g></svg>